# xmcd
#
# Track frame offsets:
#        150
#        24445
#        37945
#        55472
#        69615
#        86745
#        100305
#        119260
#        140775
#        155245
#        177002
#        191275
#        213984
#        238911
#        257141
#        283471
#        300626
#
# Disc length: 4283 seconds
#
# Revision: 0
# Processed by: cddbd v1.5.1PL2 Copyright (c) Steve Scherf et al.
# Submitted via: ExactAudioCopy v0.95a5
#
DISCID=0010b911
DTITLE=STAND BY ME - STAND BY ME Disk3
DYEAR=2005
DGENRE=Rock
TTITLE0=BLACK MAGIC WOMAN - GYPSY QUEEN/Santana
TTITLE1=GET IT ON/Chase
TTITLE2=IT NEVER RAINS IN SOUTHERN CALIFORNIA/Albert Hammond
TTITLE3=BACK STABBERS/The O'Jays
TTITLE4=T.S.O.P.(The Sound Of Philadelphia)/MFSB featuring The Three D
TTITLE4=egrees
TTITLE5=WHEN WILL I SEE YOU AGAIN/The Three Degrees
TTITLE6=WE'RE ALL ALONE/Boz Scaggs
TTITLE7=MORE THAN A FEELING/Boston
TTITLE8=I WANT YOU TO WANT ME/Cheap Trick
TTITLE9=BOOGIE WONDERLAND/Earth, Wind and Fire (with The Emotions)
TTITLE10=I'M IN THE MOOD FOR DANCING/The Nolans
TTITLE11=WHO'S CRYING NOW/Journey
TTITLE12=ROSANNA/TOTO
TTITLE13=TIME AFTER TIME/Cyndi Lauper
TTITLE14=HOLDING OUT FOR A HERO/Bonnie Tyler
TTITLE15=FOOTLOOSE/Kenny Loggins
TTITLE16=I NEED YOU/Maurice White
EXTD=
EXTT0=
EXTT1=
EXTT2=
EXTT3=
EXTT4=
EXTT5=
EXTT6=
EXTT7=
EXTT8=
EXTT9=
EXTT10=
EXTT11=
EXTT12=
EXTT13=
EXTT14=
EXTT15=
EXTT16=
PLAYORDER=
